<?xml version="1.0" encoding="iso-8859-1"?>
<svg version="1.0" id="FusionCR_-_Brand_Product" xmlns="http://www.w3.org/2000/svg" xmlns:xlink="http://www.w3.org/1999/xlink"
	 x="0px" y="0px" viewBox="0 0 1920 450" style="enable-background:new 0 0 1920 450;" xml:space="preserve">
<g id="FUSI_x5F_N">
	<path id="XMLID_00000015350026804239540570000011675732798853299903_" style="fill:#646464;" d="M259.972,285.995H106.531v92.253
		H51.889V242.122c0-8.441,1.588-17.724,4.766-27.859c6.139-18.359,17.575-32.079,34.308-41.156
		c19.907-10.972,52.205-16.461,96.894-16.461h72.114v37.092h-75.29c-20.124,0-34.311,1.051-42.57,3.151
		c-13.979,3.577-24.041,11.244-30.181,23.014c-4.447,8.621-6.671,18.283-6.671,28.999h154.712V285.995z"/>
	<path id="XMLID_00000051359219251348017520000014471242574017060508_" style="fill:#646464;" d="M508.4,303.222
		c0,29.127-11.65,49.704-34.947,61.732c-17.368,8.867-42.25,13.294-74.656,13.294c-31.559,0-56.864-5.17-75.927-15.514
		c-24.356-13.082-36.533-33.659-36.533-61.73V156.647h56.23v137.352c0,17.303,6.244,29.854,18.743,37.662
		c9.103,5.695,20.436,8.545,33.993,8.545c23.082,0,38.964-4.534,47.653-13.608c7.41-7.808,11.118-19.303,11.118-34.496V156.647
		H508.4V303.222z"/>
	<path id="XMLID_00000091010798363165151550000014305276800211919521_" style="fill:#646464;" d="M774.937,309.301
		c0,19.397-6.464,35.74-19.38,49.024c-12.921,13.286-29.335,19.923-49.241,19.923H549.062V338.62h129.614
		c8.684,0,15.989-2.016,21.922-6.056c6.776-4.678,10.167-11.058,10.167-19.136c0-18.924-13.343-28.385-40.028-28.385h-65.445
		c-18.851,0-35.372-5.795-49.558-17.392c-14.192-11.597-21.285-26.353-21.285-44.275c0-19.813,6.936-35.892,20.808-48.226
		c13.869-12.334,32.136-18.503,54.802-18.503h150.265v38.044H627.847c-5.93,0-11.912,2.471-17.949,7.405
		c-6.035,4.94-9.053,10.768-9.053,17.486c0,7.565,2.909,13.919,8.736,19.068c5.822,5.146,12.866,7.717,21.125,7.717h72.117
		c22.446,0,40.078,5.745,52.894,17.237C768.527,275.096,774.937,290.328,774.937,309.301z"/>
	<path id="XMLID_00000062879327543579636450000016063715853236418211_" style="fill:#646464;" d="M859.44,378.248h-59.408V156.647
		h59.408V378.248z"/>
	<path id="XMLID_00000046341578700533174160000001893924106041790601_" style="fill:#646464;" d="M1367.835,378.248h-59.513V232.552
		c0-3.697-0.857-7.05-2.568-10.041c-1.714-2.991-4.14-5.907-7.279-8.757c-5.712-4.84-12.276-7.264-19.694-7.264h-58.229v171.759
		h-59.513V156.927h113.887c20.266,0,34.963,1.14,44.1,3.418c14.27,3.418,25.69,10.969,34.253,22.645
		c9.7,13.673,14.556,28.628,14.556,44.864V378.248z"/>
</g>
<g id="Clickteam">
	<path id="XMLID_00000031197308374046978300000017335515369408470453_" style="fill:#969696;" d="M163.929,71.455h5.947v59.395
		h-5.947V71.455z"/>
	<path id="XMLID_00000094600420888390013870000007619829993915712418_" style="fill:#969696;" d="M114.565,82.478l-4.694,3.594
		c-2.59-3.364-5.7-5.916-9.328-7.651c-3.628-1.737-7.613-2.605-11.955-2.605c-4.749,0-9.144,1.137-13.19,3.412
		c-4.046,2.275-7.182,5.33-9.408,9.165c-2.225,3.837-3.338,8.15-3.338,12.941c0,7.241,2.489,13.284,7.465,18.13
		c4.978,4.845,11.256,7.268,18.835,7.268c8.335,0,15.308-3.257,20.919-9.771l4.694,3.553c-2.968,3.769-6.671,6.683-11.108,8.741
		c-4.437,2.06-9.393,3.089-14.869,3.089c-10.413,0-18.626-3.459-24.642-10.377c-5.045-5.841-7.566-12.893-7.566-21.158
		c0-8.694,3.054-16.009,9.164-21.946c6.109-5.935,13.763-8.903,22.962-8.903c5.556,0,10.573,1.097,15.052,3.291
		C108.037,75.446,111.706,78.521,114.565,82.478z"/>
	<path id="XMLID_00000174562368276110361940000015765953419678927747_" style="fill:#969696;" d="M126.501,71.455h5.949v53.662
		h22.901v5.734h-28.85V71.455z"/>
	<path id="XMLID_00000035511093014438777000000014752581455799635373_" style="fill:#969696;" d="M238.944,82.478l-4.694,3.594
		c-2.59-3.364-5.7-5.916-9.328-7.651c-3.628-1.737-7.613-2.605-11.955-2.605c-4.749,0-9.144,1.137-13.19,3.412
		c-4.046,2.275-7.182,5.33-9.408,9.165c-2.225,3.837-3.338,8.15-3.338,12.941c0,7.241,2.489,13.284,7.465,18.13
		c4.978,4.845,11.256,7.268,18.835,7.268c8.335,0,15.308-3.257,20.919-9.771l4.694,3.553c-2.968,3.769-6.671,6.683-11.108,8.741
		c-4.437,2.06-9.393,3.089-14.869,3.089c-10.413,0-18.626-3.459-24.642-10.377c-5.045-5.841-7.566-12.893-7.566-21.158
		c0-8.694,3.054-16.009,9.164-21.946c6.109-5.935,13.763-8.903,22.962-8.903c5.556,0,10.573,1.097,15.052,3.291
		C232.416,75.446,236.085,78.521,238.944,82.478z"/>
	<path id="XMLID_00000178892337573646628770000006594055262958621578_" style="fill:#969696;" d="M250.88,71.455h6.069v22.289
		l23.791-22.289h7.992l-28.586,26.649l30.812,32.746h-7.923l-26.086-27.666v27.666h-6.069V71.455z"/>
	<path id="XMLID_00000011002014083581839920000013232923043368055425_" style="fill:#969696;" d="M293.931,77.269v-5.814h32.612
		v5.814h-13.271v53.581h-6.069V77.269H293.931z"/>
	<path id="XMLID_00000104701783329446562450000009615737249869148070_" style="fill:#969696;" d="M335.162,71.455h34.108v5.814
		h-28.161v18.614h27.919v5.814h-27.919v23.338h27.919v5.814h-33.866V71.455z"/>
	<path id="XMLID_00000038395988386267707410000009809546414981816736_" style="fill:#969696;" d="M403.866,71.455l27.757,59.395
		h-6.425l-9.361-19.543h-25.64l-9.273,19.543h-6.636l28.122-59.395H403.866z M403.115,84.074l-10.199,21.5h20.348L403.115,84.074z"
		/>
	<path id="XMLID_00000171683185673542738420000011354469171923483574_" style="fill:#969696;" d="M438.136,130.851l8.521-59.395
		h0.966l24.196,48.736l23.964-48.736h0.954l8.564,59.395h-5.833l-5.881-42.477l-21.043,42.477h-1.521l-21.297-42.8l-5.846,42.8
		H438.136z"/>
</g>
<g id="CR">
	<path style="fill:#006278;" d="M1830.337,379.065H1458.05c-20.945,0-38.081-17.137-38.081-38.081V194.728
		c0-20.945,17.137-38.081,38.081-38.081h372.287c20.945,0,38.081,17.137,38.081,38.081v146.255
		C1868.419,361.928,1851.282,379.065,1830.337,379.065z"/>
	<g>
		<g>
			<polygon style="fill:#FFFFFF;" points="1556.609,311.859 1510.609,269.34 1556.903,223.543 1633.337,223.543 1662.989,193.73 
				1544.607,193.73 1467.43,270.072 1544.901,341.672 1660.362,341.672 1630.486,311.859 			"/>
			<path style="fill:#FFFFFF;" d="M1820.957,341.982l-70.291-70.145c7.835-8.218,12.479-19.144,12.825-31.29
				c0.562-19.708-10.327-36.876-28.415-44.805l-4.589-2.013h-47.853l-29.651,29.813h71.148c9.085,4.612,9.571,13.472,9.495,16.158
				c-0.073,2.583-0.991,10.832-9.353,15.099h-83.371v47.777l29.878,29.816v-47.781h50.437l57.489,57.369H1820.957z"/>
		</g>
		<g>
			<polygon style="fill:#FFFFFF;" points="1556.609,311.859 1510.609,269.34 1556.903,223.543 1633.337,223.543 1662.989,193.73 
				1544.607,193.73 1467.43,270.072 1544.901,341.672 1660.362,341.672 1630.486,311.859 			"/>
			<path style="fill:#FFFFFF;" d="M1820.957,341.982l-70.291-70.145c7.835-8.218,12.479-19.144,12.825-31.29
				c0.562-19.708-10.327-36.876-28.415-44.805l-4.589-2.013h-47.853l-29.651,29.813h71.148c9.085,4.612,9.571,13.472,9.495,16.158
				c-0.073,2.583-0.991,10.832-9.353,15.099h-83.371v47.777l29.878,29.816v-47.781h50.437l57.489,57.369H1820.957z"/>
		</g>
	</g>
</g>
<g id="Atom">
	<g>
		<path style="fill:#F39200;" d="M961.697,168.197l48.542,99.526l-99.529,48.543C883.901,261.299,906.729,195.006,961.697,168.197z"
			/>
		<path style="fill:#E30613;" d="M1109.768,219.18l-99.529,48.543l-48.542-99.526
			C1016.665,141.387,1082.958,164.212,1109.768,219.18z"/>
		<path style="fill:#2FAC66;" d="M1010.239,267.723l48.544,99.529c-54.968,26.81-121.263,3.982-148.072-50.985L1010.239,267.723z"/>
		<path style="fill:#009FE3;" d="M1109.768,219.18c26.81,54.968,3.982,121.263-50.985,148.072l-48.544-99.529L1109.768,219.18z"/>
		<circle style="fill:#176177;" cx="1010.24" cy="267.724" r="74.037"/>
		<path style="fill:#FFFFFF;" d="M1107.176,215.734c-6.608-5.85-19.205-3.899-35.05,4.151
			c-50.671-42.43-100.441-64.271-113.877-49.096c-5.857,6.615-3.893,19.235,4.18,35.105
			c-42.449,50.682-64.304,100.472-49.125,113.911c6.624,5.865,19.27,3.886,35.17-4.214c50.66,42.413,100.413,64.242,113.846,49.07
			c5.858-6.617,3.892-19.24-4.185-35.115C1100.529,278.897,1122.344,229.164,1107.176,215.734z M988.468,204.661
			c9.772-11.389,39.658-3.238,77.506,18.563c-8.232,4.736-27.054,20.08-41.74,32.472c-3.385-3.935-8.397-6.431-13.994-6.431
			c-3.098,0-6.015,0.767-8.578,2.115C992.33,232.602,983.543,210.401,988.468,204.661z M947.177,289.586
			c-11.394-9.776-3.232-39.682,18.589-77.55c4.747,8.244,20.114,26.961,32.541,41.611c-3.99,3.386-6.525,8.435-6.525,14.079
			c0,3.852,1.182,7.428,3.2,10.387c-3.172,2.302-5.647,3.952-5.919,3.537C969.806,292.676,954.749,296.083,947.177,289.586z
			 M1032.101,330.788c-9.769,11.386-39.64,3.244-77.471-18.543c8.214-4.736,26.923-20.092,41.585-32.526
			c3.385,3.955,8.41,6.465,14.026,6.465c3.162,0,6.139-0.797,8.741-2.199C1028.269,302.793,1037.006,325.071,1032.101,330.788z
			 M1022.329,281.667c3.9-3.384,6.37-8.373,6.37-13.942c0-3.145-0.789-6.106-2.176-8.698c18.782-9.267,41.057-17.986,46.781-13.075
			c11.381,9.765,3.25,39.617-18.517,77.427C1050.06,315.178,1034.728,296.365,1022.329,281.667z"/>
	</g>
</g>
</svg>
